<svg width="1489pt" height="684" viewBox="0 0 1489 513" xmlns="http://www.w3.org/2000/svg">
  <g fill="#FFFFFF">
    <path d="M253.97 33.03c2.79-.69 5.7-.97 8.56-.49-.07 50.82 0 101.64-.04 152.45-.01 2.08-.26 4.27-1.69 5.89-29.89 41.07-59.85 82.09-89.69 123.2-1.68 2.14-3.12 5.37-6.25 5.41-44.28.53-88.57.14-132.86.26-5.27-.16-10.68.6-15.81-1 3.14-12.61 8.92-24.51 16.57-34.99C86.7 212.36 140.69 141 194.59 69.57c14.67-18.67 36.15-31.75 59.38-36.54ZM288.26 34.03c-.15-2.62 3.23-1.64 4.81-1.56 24.95 4.01 48.19 17.88 63.55 37.95 53.63 71.03 107.33 142.02 160.97 213.04 7.72 10.39 13.45 22.25 16.71 34.79-6.79 2.61-14.28.52-21.36 1.42-41.33.2-82.66 0-123.99.1-2.32-.06-5.21.07-6.72-2.04-30.85-42.18-61.53-84.49-92.35-126.7-2.98-4.06-1.55-9.42-1.88-14.08.45-20.98.17-41.97.26-62.96-.74-26.65.24-53.3 0-79.96ZM1260.97 147.87c22.11-10.79 47.69-13.88 71.88-9.74 21.54 3.51 41.29 15.02 56.33 30.65 6.3-8.25 12.38-16.67 18.79-24.84.76-.87 1.46-2.28 2.91-1.94 15.37-.01 30.74 0 46.12 0 .01 72.33-.01 144.66.01 216.99-.82 33.59-14.7 67.5-40.4 89.67-13.64 11.9-29.92 20.63-47.18 25.95-23.43 6.97-48.28 8.58-72.53 5.98-31.11-3.06-61.19-15.29-85.78-34.57 13.72-18.26 27.33-36.62 41.08-54.86 16.14 13.59 36.57 22.59 57.82 23.16 17.78.85 37.19-1.16 51.54-12.7 13.48-11.14 17.92-29.57 17.98-46.35-14.05 11.16-30.94 18.8-48.72 21.42-24.93 3.53-51.2-.05-73.5-12.04-29.1-15.48-50.3-44.54-57-76.72-5.41-25.18-4.23-51.91 4.42-76.23 9.73-27.35 29.86-51.26 56.23-63.83m55.47 59.73c-13.04 2.52-25.15 10.24-32.4 21.44-13.59 20.81-10.77 51.24 7.51 68.41 12.95 12.4 32.39 15.98 49.6 12.65 17.89-3 33.59-16.66 38.71-34.1 5.39-18.16 2.23-39.66-11.35-53.52-12.92-14.22-33.75-18.47-52.07-14.88ZM714.05 140.07c24.13-5.06 49.54-4.32 73.2 2.72 29.59 8.51 54.78 30.58 67.54 58.55 13.35 28.48 15.88 61.02 11.58 91.89-56.81.05-113.62 0-170.43.03 4.69 14.96 15.02 28.73 29.6 35.18 15.49 7.04 33.19 6.41 49.58 3.35 13.04-2.53 24.7-9.3 35.43-16.86 12.43 16.63 24.81 33.3 37.5 49.74-13.89 12.84-30.55 22.68-48.49 28.68-16.91 5.59-34.87 7.38-52.6 7.37-19.58-.39-39.26-4.24-56.94-12.85-18.21-8.84-34.41-21.99-46.32-38.4-21.79-29.69-29.49-68.4-23.7-104.5 4.92-31.26 20.46-61.42 45.44-81.29 14.14-11.43 30.86-19.66 48.61-23.61m5.35 67.29c-12.57 7.16-20.23 20.53-24.01 34.12 33.63.03 67.26.03 100.9 0-1.69-6.41-3.92-12.75-7.39-18.43-5.23-9.02-13.92-15.77-23.7-19.2-14.85-5.25-31.92-3.91-45.8 3.51ZM1022.87 142.57c14.46-5.07 29.96-6.41 45.19-6.05 17.23.59 34.63 4.83 49.32 14.08 18.7 11.71 32.74 30.44 39.2 51.5 4.54 13.83 6.16 28.44 6.43 42.94-.04 49.49.03 98.98-.04 148.48-26.29 0-52.59-.08-78.88.04-.24-44.18.03-88.37-.14-132.55-.06-13.48-2.58-27.82-11.56-38.38-8.7-10.51-23.09-14.84-36.37-13.7-20.62.84-39.65 16.05-45.31 35.83-2.03 6.87-1.69 14.11-1.71 21.19-.02 42.52.04 85.05-.03 127.57-26.33-.07-52.66.05-78.99-.06.05-83.82 0-167.64.02-251.46 15.91.09 31.82-.18 47.72.14 7.28 9.35 14.07 19.07 21.23 28.51 12.19-12.61 27.32-22.41 43.92-28.08ZM13.06 344.33c5.27-.9 10.62-.51 15.94-.58 69.65.02 139.29-.05 208.94.03.4 8.74.08 17.47.06 26.22-73.03.01-146.06-.02-219.09.02-1.32.12-2.96-.08-3.06-1.73-2.2-7.76-2.86-15.91-2.79-23.96ZM313.23 344.33c3.53-.66 7.18-.43 10.77-.59 63.35.02 126.7 0 190.06.01 7.67.19 15.42-.51 23.04.63.82 1.35.28 3.13.4 4.66-.28 7.08-1.19 14.16-3.25 20.96-73.92-.02-147.84.04-221.77-.03.45-8.52-.93-17.24.75-25.64ZM24.1 394.27c18.63-.16 37.27.26 55.89-.28 24.99.03 49.99 0 74.98.01 27.76-.12 55.51.48 83.27.23-.45 8.75-.14 17.52-.26 26.28-67.41-.04-134.81.02-202.21-.03-4.64-8.38-8.46-17.19-11.67-26.21ZM312.51 394.24c20.5.04 40.99.06 61.48-.24 31.66-.01 63.32.02 94.98-.01 19.16.54 38.35.11 57.52.3-3.18 9.03-7.11 17.8-11.72 26.2-67.42.02-134.84.01-202.26.01-.01-8.75-.03-17.51 0-26.26ZM55.86 444.79c35.88-.25 71.77-.47 107.65-.19 24.83.35 49.66.04 74.49.15-.5 8.66 1.52 17.63-.89 26.08-39.04-.2-78.09-.01-117.13-.1-23.48-.92-46.72-10.08-64.12-25.94ZM312.51 444.75c49.12.12 98.23-.54 147.35-.18 11.59.42 23.2.03 34.8.22-15.53 14.29-35.85 23.06-56.77 25.38-6.26.84-12.58.52-18.87.58h-96.07c-3.4-.08-6.87.35-10.19-.53-.5-8.48-.18-16.98-.25-25.47Z"/>
  </g>
</svg>
